<svg version="1.1" xmlns="http://www.w3.org/2000/svg" xmlns:xlink="http://www.w3.org/1999/xlink" width="1217.93896484375" height="492"><defs/><g><text fill="#eeeeee" stroke="none" font-family="Arial" font-size="24px" font-style="normal" font-weight="normal" text-decoration="none" x="0" y="0"> </text><text fill="#eeeeee" stroke="none" font-family="Arial" font-size="24px" font-style="normal" font-weight="normal" text-decoration="none" x="0" y="30"> </text><text fill="#eeeeee" stroke="none" font-family="Arial" font-size="24px" font-style="normal" font-weight="normal" text-decoration="none" x="0" y="60"> </text><text fill="#eeeeee" stroke="none" font-family="Arial" font-size="24px" font-style="normal" font-weight="normal" text-decoration="none" x="0" y="90"> </text><text fill="#eeeeee" stroke="none" font-family="Arial" font-size="24px" font-style="normal" font-weight="normal" text-decoration="none" x="0" y="120"> </text><text fill="#eeeeee" stroke="none" font-family="Arial" font-size="24px" font-style="normal" font-weight="normal" text-decoration="none" x="0" y="150"> </text><text fill="#eeeeee" stroke="none" font-family="Arial" font-size="24px" font-style="normal" font-weight="normal" text-decoration="none" x="0" y="180"> </text><text fill="#eeeeee" stroke="none" font-family="Arial" font-size="24px" font-style="normal" font-weight="normal" text-decoration="none" x="0" y="210"> </text><text fill="#eeeeee" stroke="none" font-family="Arial" font-size="24px" font-style="normal" font-weight="normal" text-decoration="none" x="0" y="240"> </text><text fill="#eeeeee" stroke="none" font-family="Arial" font-size="24px" font-style="normal" font-weight="normal" text-decoration="none" x="0" y="270"> </text><text fill="#eeeeee" stroke="none" font-family="Arial" font-size="24px" font-style="normal" font-weight="normal" text-decoration="none" x="0" y="300"> </text><text fill="#eeeeee" stroke="none" font-family="Arial" font-size="24px" font-style="normal" font-weight="normal" text-decoration="none" x="0" y="330"> </text><text fill="#eeeeee" stroke="none" font-family="Arial" font-size="24px" font-style="normal" font-weight="normal" text-decoration="none" x="0" y="360"> </text><text fill="#eeeeee" stroke="none" font-family="Arial" font-size="24px" font-style="normal" font-weight="normal" text-decoration="none" x="0" y="390"> </text><text fill="#eeeeee" stroke="none" font-family="Arial" font-size="24px" font-style="normal" font-weight="normal" text-decoration="none" x="0" y="420"> </text><text fill="#eeeeee" stroke="none" font-family="Arial" font-size="24px" font-style="normal" font-weight="normal" text-decoration="none" x="0" y="450"> </text><text fill="#eeeeee" stroke="none" font-family="Arial" font-size="24px" font-style="normal" font-weight="normal" text-decoration="none" x="0" y="480"> </text><text fill="#eeeeee" stroke="none" font-family="Arial" font-size="24px" font-style="normal" font-weight="normal" text-decoration="none" x="200" y="0"> </text><text fill="#eeeeee" stroke="none" font-family="Arial" font-size="24px" font-style="normal" font-weight="normal" text-decoration="none" x="200" y="30"> </text><text fill="#eeeeee" stroke="none" font-family="Arial" font-size="24px" font-style="normal" font-weight="normal" text-decoration="none" x="200" y="60"> </text><text fill="#eeeeee" stroke="none" font-family="Arial" font-size="24px" font-style="normal" font-weight="normal" text-decoration="none" x="200" y="90"> </text><text fill="#eeeeee" stroke="none" font-family="Arial" font-size="24px" font-style="normal" font-weight="normal" text-decoration="none" x="200" y="120"> </text><text fill="#eeeeee" stroke="none" font-family="Arial" font-size="24px" font-style="normal" font-weight="normal" text-decoration="none" x="200" y="150"> </text><text fill="#eeeeee" stroke="none" font-family="Arial" font-size="24px" font-style="normal" font-weight="normal" text-decoration="none" x="200" y="180"> </text><text fill="#eeeeee" stroke="none" font-family="Arial" font-size="24px" font-style="normal" font-weight="normal" text-decoration="none" x="200" y="210"> </text><text fill="#eeeeee" stroke="none" font-family="Arial" font-size="24px" font-style="normal" font-weight="normal" text-decoration="none" x="200" y="240"> </text><text fill="#eeeeee" stroke="none" font-family="Arial" font-size="24px" font-style="normal" font-weight="normal" text-decoration="none" x="200" y="270"> </text><text fill="#eeeeee" stroke="none" font-family="Arial" font-size="24px" font-style="normal" font-weight="normal" text-decoration="none" x="200" y="300"> </text><text fill="#eeeeee" stroke="none" font-family="Arial" font-size="24px" font-style="normal" font-weight="normal" text-decoration="none" x="200" y="330"> </text><text fill="#eeeeee" stroke="none" font-family="Arial" font-size="24px" font-style="normal" font-weight="normal" text-decoration="none" x="200" y="360"> </text><text fill="#eeeeee" stroke="none" font-family="Arial" font-size="24px" font-style="normal" font-weight="normal" text-decoration="none" x="200" y="390"> </text><text fill="#eeeeee" stroke="none" font-family="Arial" font-size="24px" font-style="normal" font-weight="normal" text-decoration="none" x="200" y="420"> </text><text fill="#eeeeee" stroke="none" font-family="Arial" font-size="24px" font-style="normal" font-weight="normal" text-decoration="none" x="200" y="450"> </text><text fill="#eeeeee" stroke="none" font-family="Arial" font-size="24px" font-style="normal" font-weight="normal" text-decoration="none" x="200" y="480"> </text><text fill="#eeeeee" stroke="none" font-family="Arial" font-size="24px" font-style="normal" font-weight="normal" text-decoration="none" x="400" y="0"> </text><text fill="#eeeeee" stroke="none" font-family="Arial" font-size="24px" font-style="normal" font-weight="normal" text-decoration="none" x="400" y="30"> </text><text fill="#eeeeee" stroke="none" font-family="Arial" font-size="24px" font-style="normal" font-weight="normal" text-decoration="none" x="400" y="60"> </text><text fill="#eeeeee" stroke="none" font-family="Arial" font-size="24px" font-style="normal" font-weight="normal" text-decoration="none" x="400" y="90"> </text><text fill="#eeeeee" stroke="none" font-family="Arial" font-size="24px" font-style="normal" font-weight="normal" text-decoration="none" x="400" y="120"> </text><text fill="#eeeeee" stroke="none" font-family="Arial" font-size="24px" font-style="normal" font-weight="normal" text-decoration="none" x="400" y="150"> </text><text fill="#eeeeee" stroke="none" font-family="Arial" font-size="24px" font-style="normal" font-weight="normal" text-decoration="none" x="400" y="180"> </text><text fill="#eeeeee" stroke="none" font-family="Arial" font-size="24px" font-style="normal" font-weight="normal" text-decoration="none" x="400" y="210"> </text><text fill="#eeeeee" stroke="none" font-family="Arial" font-size="24px" font-style="normal" font-weight="normal" text-decoration="none" x="400" y="240"> </text><text fill="#eeeeee" stroke="none" font-family="Arial" font-size="24px" font-style="normal" font-weight="normal" text-decoration="none" x="400" y="270"> </text><text fill="#eeeeee" stroke="none" font-family="Arial" font-size="24px" font-style="normal" font-weight="normal" text-decoration="none" x="400" y="300"> </text><text fill="#eeeeee" stroke="none" font-family="Arial" font-size="24px" font-style="normal" font-weight="normal" text-decoration="none" x="400" y="330"> </text><text fill="#eeeeee" stroke="none" font-family="Arial" font-size="24px" font-style="normal" font-weight="normal" text-decoration="none" x="400" y="360"> </text><text fill="#eeeeee" stroke="none" font-family="Arial" font-size="24px" font-style="normal" font-weight="normal" text-decoration="none" x="400" y="390"> </text><text fill="#eeeeee" stroke="none" font-family="Arial" font-size="24px" font-style="normal" font-weight="normal" text-decoration="none" x="400" y="420"> </text><text fill="#eeeeee" stroke="none" font-family="Arial" font-size="24px" font-style="normal" font-weight="normal" text-decoration="none" x="400" y="450"> </text><text fill="#eeeeee" stroke="none" font-family="Arial" font-size="24px" font-style="normal" font-weight="normal" text-decoration="none" x="400" y="480"> </text><text fill="#eeeeee" stroke="none" font-family="Arial" font-size="24px" font-style="normal" font-weight="normal" text-decoration="none" x="600" y="0"> </text><text fill="#eeeeee" stroke="none" font-family="Arial" font-size="24px" font-style="normal" font-weight="normal" text-decoration="none" x="600" y="30"> </text><text fill="#eeeeee" stroke="none" font-family="Arial" font-size="24px" font-style="normal" font-weight="normal" text-decoration="none" x="600" y="60"> </text><text fill="#eeeeee" stroke="none" font-family="Arial" font-size="24px" font-style="normal" font-weight="normal" text-decoration="none" x="600" y="90"> </text><text fill="#eeeeee" stroke="none" font-family="Arial" font-size="24px" font-style="normal" font-weight="normal" text-decoration="none" x="600" y="120"> </text><text fill="#eeeeee" stroke="none" font-family="Arial" font-size="24px" font-style="normal" font-weight="normal" text-decoration="none" x="600" y="150"> </text><text fill="#eeeeee" stroke="none" font-family="Arial" font-size="24px" font-style="normal" font-weight="normal" text-decoration="none" x="600" y="180"> </text><text fill="#eeeeee" stroke="none" font-family="Arial" font-size="24px" font-style="normal" font-weight="normal" text-decoration="none" x="600" y="210"> </text><text fill="#eeeeee" stroke="none" font-family="Arial" font-size="24px" font-style="normal" font-weight="normal" text-decoration="none" x="600" y="240"> </text><text fill="#eeeeee" stroke="none" font-family="Arial" font-size="24px" font-style="normal" font-weight="normal" text-decoration="none" x="600" y="270"> </text><text fill="#eeeeee" stroke="none" font-family="Arial" font-size="24px" font-style="normal" font-weight="normal" text-decoration="none" x="600" y="300"> </text><text fill="#eeeeee" stroke="none" font-family="Arial" font-size="24px" font-style="normal" font-weight="normal" text-decoration="none" x="600" y="330"> </text><text fill="#eeeeee" stroke="none" font-family="Arial" font-size="24px" font-style="normal" font-weight="normal" text-decoration="none" x="600" y="360"> </text><text fill="#eeeeee" stroke="none" font-family="Arial" font-size="24px" font-style="normal" font-weight="normal" text-decoration="none" x="600" y="390"> </text><text fill="#eeeeee" stroke="none" font-family="Arial" font-size="24px" font-style="normal" font-weight="normal" text-decoration="none" x="600" y="420"> </text><text fill="#eeeeee" stroke="none" font-family="Arial" font-size="24px" font-style="normal" font-weight="normal" text-decoration="none" x="600" y="450"> </text><text fill="#eeeeee" stroke="none" font-family="Arial" font-size="24px" font-style="normal" font-weight="normal" text-decoration="none" x="600" y="480"> </text><text fill="#eeeeee" stroke="none" font-family="Arial" font-size="24px" font-style="normal" font-weight="normal" text-decoration="none" x="800" y="0"> </text><text fill="#eeeeee" stroke="none" font-family="Arial" font-size="24px" font-style="normal" font-weight="normal" text-decoration="none" x="800" y="30"> </text><text fill="#eeeeee" stroke="none" font-family="Arial" font-size="24px" font-style="normal" font-weight="normal" text-decoration="none" x="800" y="60"> </text><text fill="#eeeeee" stroke="none" font-family="Arial" font-size="24px" font-style="normal" font-weight="normal" text-decoration="none" x="800" y="90"> </text><text fill="#eeeeee" stroke="none" font-family="Arial" font-size="24px" font-style="normal" font-weight="normal" text-decoration="none" x="800" y="120"> </text><text fill="#eeeeee" stroke="none" font-family="Arial" font-size="24px" font-style="normal" font-weight="normal" text-decoration="none" x="800" y="150"> </text><text fill="#eeeeee" stroke="none" font-family="Arial" font-size="24px" font-style="normal" font-weight="normal" text-decoration="none" x="800" y="180"> </text><text fill="#eeeeee" stroke="none" font-family="Arial" font-size="24px" font-style="normal" font-weight="normal" text-decoration="none" x="800" y="210"> </text><text fill="#eeeeee" stroke="none" font-family="Arial" font-size="24px" font-style="normal" font-weight="normal" text-decoration="none" x="800" y="240"> </text><text fill="#eeeeee" stroke="none" font-family="Arial" font-size="24px" font-style="normal" font-weight="normal" text-decoration="none" x="800" y="270"> </text><text fill="#eeeeee" stroke="none" font-family="Arial" font-size="24px" font-style="normal" font-weight="normal" text-decoration="none" x="800" y="300"> </text><text fill="#eeeeee" stroke="none" font-family="Arial" font-size="24px" font-style="normal" font-weight="normal" text-decoration="none" x="800" y="330"> </text><text fill="#eeeeee" stroke="none" font-family="Arial" font-size="24px" font-style="normal" font-weight="normal" text-decoration="none" x="800" y="360"> </text><text fill="#eeeeee" stroke="none" font-family="Arial" font-size="24px" font-style="normal" font-weight="normal" text-decoration="none" x="800" y="390"> </text><text fill="#eeeeee" stroke="none" font-family="Arial" font-size="24px" font-style="normal" font-weight="normal" text-decoration="none" x="800" y="420"> </text><text fill="#eeeeee" stroke="none" font-family="Arial" font-size="24px" font-style="normal" font-weight="normal" text-decoration="none" x="800" y="450"> </text><text fill="#eeeeee" stroke="none" font-family="Arial" font-size="24px" font-style="normal" font-weight="normal" text-decoration="none" x="800" y="480"> </text><text fill="#eeeeee" stroke="none" font-family="Arial" font-size="24px" font-style="normal" font-weight="normal" text-decoration="none" x="1000" y="0"> </text><text fill="#eeeeee" stroke="none" font-family="Arial" font-size="24px" font-style="normal" font-weight="normal" text-decoration="none" x="1000" y="30"> </text><text fill="#eeeeee" stroke="none" font-family="Arial" font-size="24px" font-style="normal" font-weight="normal" text-decoration="none" x="1000" y="60"> </text><text fill="#eeeeee" stroke="none" font-family="Arial" font-size="24px" font-style="normal" font-weight="normal" text-decoration="none" x="1000" y="90"> </text><text fill="#eeeeee" stroke="none" font-family="Arial" font-size="24px" font-style="normal" font-weight="normal" text-decoration="none" x="1000" y="120"> </text><text fill="#eeeeee" stroke="none" font-family="Arial" font-size="24px" font-style="normal" font-weight="normal" text-decoration="none" x="1000" y="150"> </text><text fill="#eeeeee" stroke="none" font-family="Arial" font-size="24px" font-style="normal" font-weight="normal" text-decoration="none" x="1000" y="180"> </text><text fill="#eeeeee" stroke="none" font-family="Arial" font-size="24px" font-style="normal" font-weight="normal" text-decoration="none" x="1000" y="210"> </text><text fill="#eeeeee" stroke="none" font-family="Arial" font-size="24px" font-style="normal" font-weight="normal" text-decoration="none" x="1000" y="240"> </text><text fill="#eeeeee" stroke="none" font-family="Arial" font-size="24px" font-style="normal" font-weight="normal" text-decoration="none" x="1000" y="270"> </text><text fill="#eeeeee" stroke="none" font-family="Arial" font-size="24px" font-style="normal" font-weight="normal" text-decoration="none" x="1000" y="300"> </text><text fill="#eeeeee" stroke="none" font-family="Arial" font-size="24px" font-style="normal" font-weight="normal" text-decoration="none" x="1000" y="330"> </text><text fill="#eeeeee" stroke="none" font-family="Arial" font-size="24px" font-style="normal" font-weight="normal" text-decoration="none" x="1000" y="360"> </text><text fill="#eeeeee" stroke="none" font-family="Arial" font-size="24px" font-style="normal" font-weight="normal" text-decoration="none" x="1000" y="390"> </text><text fill="#eeeeee" stroke="none" font-family="Arial" font-size="24px" font-style="normal" font-weight="normal" text-decoration="none" x="1000" y="420"> </text><text fill="#eeeeee" stroke="none" font-family="Arial" font-size="24px" font-style="normal" font-weight="normal" text-decoration="none" x="1000" y="450"> </text><text fill="#eeeeee" stroke="none" font-family="Arial" font-size="24px" font-style="normal" font-weight="normal" text-decoration="none" x="1000" y="480"> </text><text fill="#eeeeee" stroke="none" font-family="Arial" font-size="24px" font-style="normal" font-weight="normal" text-decoration="none" x="1200" y="0"> </text><text fill="#eeeeee" stroke="none" font-family="Arial" font-size="24px" font-style="normal" font-weight="normal" text-decoration="none" x="1200" y="30"> </text><text fill="#eeeeee" stroke="none" font-family="Arial" font-size="24px" font-style="normal" font-weight="normal" text-decoration="none" x="1200" y="60"> </text><text fill="#eeeeee" stroke="none" font-family="Arial" font-size="24px" font-style="normal" font-weight="normal" text-decoration="none" x="1200" y="90"> </text><text fill="#eeeeee" stroke="none" font-family="Arial" font-size="24px" font-style="normal" font-weight="normal" text-decoration="none" x="1200" y="120"> </text><text fill="#eeeeee" stroke="none" font-family="Arial" font-size="24px" font-style="normal" font-weight="normal" text-decoration="none" x="1200" y="150"> </text><text fill="#eeeeee" stroke="none" font-family="Arial" font-size="24px" font-style="normal" font-weight="normal" text-decoration="none" x="1200" y="180"> </text><text fill="#eeeeee" stroke="none" font-family="Arial" font-size="24px" font-style="normal" font-weight="normal" text-decoration="none" x="1200" y="210"> </text><text fill="#eeeeee" stroke="none" font-family="Arial" font-size="24px" font-style="normal" font-weight="normal" text-decoration="none" x="1200" y="240"> </text><text fill="#eeeeee" stroke="none" font-family="Arial" font-size="24px" font-style="normal" font-weight="normal" text-decoration="none" x="1200" y="270"> </text><text fill="#eeeeee" stroke="none" font-family="Arial" font-size="24px" font-style="normal" font-weight="normal" text-decoration="none" x="1200" y="300"> </text><text fill="#eeeeee" stroke="none" font-family="Arial" font-size="24px" font-style="normal" font-weight="normal" text-decoration="none" x="1200" y="330"> </text><text fill="#eeeeee" stroke="none" font-family="Arial" font-size="24px" font-style="normal" font-weight="normal" text-decoration="none" x="1200" y="360"> </text><text fill="#eeeeee" stroke="none" font-family="Arial" font-size="24px" font-style="normal" font-weight="normal" text-decoration="none" x="1200" y="390"> </text><text fill="#eeeeee" stroke="none" font-family="Arial" font-size="24px" font-style="normal" font-weight="normal" text-decoration="none" x="1200" y="420"> </text><text fill="#eeeeee" stroke="none" font-family="Arial" font-size="24px" font-style="normal" font-weight="normal" text-decoration="none" x="1200" y="450"> </text><text fill="#eeeeee" stroke="none" font-family="Arial" font-size="24px" font-style="normal" font-weight="normal" text-decoration="none" x="1200" y="480"> </text><g transform="translate(10,-86) scale(1,1)"><rect fill="#C0C0C0" stroke="none" x="207" y="103" width="800" height="472" opacity="0.2"/></g><g transform="translate(10,-86) scale(1,1)"><rect fill="#ffffff" stroke="none" x="200" y="96" width="800" height="472"/></g><g transform="translate(10,-86) scale(1,1)"><path fill="none" stroke="#000000" d="M 200 96 L 1000 96 L 1000 568 L 200 568 L 200 96 Z Z" stroke-miterlimit="10"/></g><g transform="translate(10,-86) scale(1,1)"><g><path fill="none" stroke="none"/><text fill="#000000" stroke="none" font-family="Arial" font-size="13px" font-style="normal" font-weight="bold" text-decoration="none" x="533.156005859375" y="115.5">Deteccion de vehiculos</text></g></g><g transform="translate(10,-86) scale(1,1)"><path fill="#C0C0C0" stroke="none" d="M 231 408 C 231 398.6111584 277.7862384 391 335.5 391 C 393.2137616 391 440 398.6111584 440 408 C 440 417.3888416 393.2137616 425 335.5 425 C 277.7862384 425 231 417.3888416 231 408 Z" opacity="0.2"/></g><g transform="translate(10,-86) scale(1,1)"><path fill="#ffffff" stroke="none" d="M 224 401 C 224 391.6111584 270.7862384 384 328.5 384 C 386.2137616 384 433 391.6111584 433 401 C 433 410.3888416 386.2137616 418 328.5 418 C 270.7862384 418 224 410.3888416 224 401 Z"/></g><g transform="translate(10,-86) scale(1,1)"><path fill="none" stroke="#000000" d="M 224 401 C 224 391.6111584 270.7862384 384 328.5 384 C 386.2137616 384 433 391.6111584 433 401 C 433 410.3888416 386.2137616 418 328.5 418 C 270.7862384 418 224 410.3888416 224 401 Z" stroke-miterlimit="10"/></g><g transform="translate(10,-86) scale(1,1)"><g><path fill="none" stroke="none"/><text fill="#000000" stroke="none" font-family="Arial" font-size="13px" font-style="normal" font-weight="bold" text-decoration="none" x="286.23095703125" y="408">Introducir calle</text></g></g><g transform="translate(10,-86) scale(1,1)"><path fill="#ffffff" stroke="none" d="M 67.33977024147727 313.68 C 67.33977024147727 308.886167936 71.22561256642273 305 76.01904296875 305 C 80.81247337107727 305 84.69831569602273 308.886167936 84.69831569602273 313.68 C 84.69831569602273 318.473832064 80.81247337107727 322.36 76.01904296875 322.36 C 71.22561256642273 322.36 67.33977024147727 318.473832064 67.33977024147727 313.68 Z"/></g><g transform="translate(10,-86) scale(1,1)"><path fill="none" stroke="#000000" d="M 67.33977024147727 313.68 C 67.33977024147727 308.886167936 71.22561256642273 305 76.01904296875 305 C 80.81247337107727 305 84.69831569602273 308.886167936 84.69831569602273 313.68 C 84.69831569602273 318.473832064 80.81247337107727 322.36 76.01904296875 322.36 C 71.22561256642273 322.36 67.33977024147727 318.473832064 67.33977024147727 313.68 Z" stroke-miterlimit="10"/></g><g transform="translate(10,-86) scale(1,1)"><path fill="none" stroke="#000000" d="M 76.01904296875 322.36 L 76.01904296875 339.64" stroke-miterlimit="10"/></g><g transform="translate(10,-86) scale(1,1)"><path fill="none" stroke="#000000" d="M 66.82922478693182 328.84 L 85.20886115056818 328.84" stroke-miterlimit="10"/></g><g transform="translate(10,-86) scale(1,1)"><path fill="none" stroke="#000000" d="M 76.01904296875 339.64 L 63.255406605113635 357" stroke-miterlimit="10"/></g><g transform="translate(10,-86) scale(1,1)"><path fill="none" stroke="#000000" d="M 76.01904296875 339.64 L 88.78267933238637 357" stroke-miterlimit="10"/></g><g transform="translate(10,-86) scale(1,1)"><g><path fill="none" stroke="none"/><text fill="#000000" stroke="none" font-family="Arial" font-size="13px" font-style="normal" font-weight="bold" text-decoration="none" x="9.53369140625" y="377.5">Personal ayuntamiento</text></g></g><g transform="translate(10,-86) scale(1,1)"><path fill="none" stroke="#000000" d="M 153 361 L 250 383" stroke-miterlimit="10"/></g><g transform="translate(10,-86) scale(1,1)"><path fill="#C0C0C0" stroke="none" d="M 623 256 C 623 246.6111584 681.4268336 239 753.5 239 C 825.5731664 239 884 246.6111584 884 256 C 884 265.3888416 825.5731664 273 753.5 273 C 681.4268336 273 623 265.3888416 623 256 Z" opacity="0.2"/></g><g transform="translate(10,-86) scale(1,1)"><path fill="#ffffff" stroke="none" d="M 616 249 C 616 239.6111584 674.4268336 232 746.5 232 C 818.5731664 232 877 239.6111584 877 249 C 877 258.3888416 818.5731664 266 746.5 266 C 674.4268336 266 616 258.3888416 616 249 Z"/></g><g transform="translate(10,-86) scale(1,1)"><path fill="none" stroke="#000000" d="M 616 249 C 616 239.6111584 674.4268336 232 746.5 232 C 818.5731664 232 877 239.6111584 877 249 C 877 258.3888416 818.5731664 266 746.5 266 C 674.4268336 266 616 258.3888416 616 249 Z" stroke-miterlimit="10"/></g><g transform="translate(10,-86) scale(1,1)"><g><path fill="none" stroke="none"/><text fill="#000000" stroke="none" font-family="Arial" font-size="13px" font-style="normal" font-weight="bold" text-decoration="none" x="697.724609375" y="256">Contar vehículos</text></g></g><g transform="translate(10,-86) scale(1,1)"><path fill="#C0C0C0" stroke="none" d="M 807 472 C 807 462.6111584 842.5933583999999 455 886.5 455 C 930.4066416000001 455 966 462.6111584 966 472 C 966 481.3888416 930.4066416000001 489 886.5 489 C 842.5933583999999 489 807 481.3888416 807 472 Z" opacity="0.2"/></g><g transform="translate(10,-86) scale(1,1)"><path fill="#ffffff" stroke="none" d="M 800 465 C 800 455.6111584 835.5933583999999 448 879.5 448 C 923.4066416000001 448 959 455.6111584 959 465 C 959 474.3888416 923.4066416000001 482 879.5 482 C 835.5933583999999 482 800 474.3888416 800 465 Z"/></g><g transform="translate(10,-86) scale(1,1)"><path fill="none" stroke="#000000" d="M 800 465 C 800 455.6111584 835.5933583999999 448 879.5 448 C 923.4066416000001 448 959 455.6111584 959 465 C 959 474.3888416 923.4066416000001 482 879.5 482 C 835.5933583999999 482 800 474.3888416 800 465 Z" stroke-miterlimit="10"/></g><g transform="translate(10,-86) scale(1,1)"><g><path fill="none" stroke="none"/><text fill="#000000" stroke="none" font-family="Arial" font-size="13px" font-style="normal" font-weight="bold" text-decoration="none" x="832.530517578125" y="472">Segmentar calle</text></g></g><g transform="translate(10,-86) scale(1,1)"><path fill="#C0C0C0" stroke="none" d="M 567 472 C 567 462.6111584 604.8319344 455 651.5 455 C 698.1680656 455 736 462.6111584 736 472 C 736 481.3888416 698.1680656 489 651.5 489 C 604.8319344 489 567 481.3888416 567 472 Z" opacity="0.2"/></g><g transform="translate(10,-86) scale(1,1)"><path fill="#ffffff" stroke="none" d="M 560 465 C 560 455.6111584 597.8319344 448 644.5 448 C 691.1680656 448 729 455.6111584 729 465 C 729 474.3888416 691.1680656 482 644.5 482 C 597.8319344 482 560 474.3888416 560 465 Z"/></g><g transform="translate(10,-86) scale(1,1)"><path fill="none" stroke="#000000" d="M 560 465 C 560 455.6111584 597.8319344 448 644.5 448 C 691.1680656 448 729 455.6111584 729 465 C 729 474.3888416 691.1680656 482 644.5 482 C 597.8319344 482 560 474.3888416 560 465 Z" stroke-miterlimit="10"/></g><g transform="translate(10,-86) scale(1,1)"><g><path fill="none" stroke="none"/><text fill="#000000" stroke="none" font-family="Arial" font-size="13px" font-style="normal" font-weight="bold" text-decoration="none" x="592.82373046875" y="472">Obtener densidad</text></g></g><g transform="translate(10,-86) scale(1,1)"><path fill="#ffffff" stroke="none" d="M 1118.2902096946023 305.68 C 1118.2902096946023 300.886167936 1122.1760520195478 297 1126.969482421875 297 C 1131.7629128242022 297 1135.6487551491477 300.886167936 1135.6487551491477 305.68 C 1135.6487551491477 310.473832064 1131.7629128242022 314.36 1126.969482421875 314.36 C 1122.1760520195478 314.36 1118.2902096946023 310.473832064 1118.2902096946023 305.68 Z"/></g><g transform="translate(10,-86) scale(1,1)"><path fill="none" stroke="#000000" d="M 1118.2902096946023 305.68 C 1118.2902096946023 300.886167936 1122.1760520195478 297 1126.969482421875 297 C 1131.7629128242022 297 1135.6487551491477 300.886167936 1135.6487551491477 305.68 C 1135.6487551491477 310.473832064 1131.7629128242022 314.36 1126.969482421875 314.36 C 1122.1760520195478 314.36 1118.2902096946023 310.473832064 1118.2902096946023 305.68 Z" stroke-miterlimit="10"/></g><g transform="translate(10,-86) scale(1,1)"><path fill="none" stroke="#000000" d="M 1126.969482421875 314.36 L 1126.969482421875 331.64" stroke-miterlimit="10"/></g><g transform="translate(10,-86) scale(1,1)"><path fill="none" stroke="#000000" d="M 1117.7796642400567 320.84 L 1136.1593006036933 320.84" stroke-miterlimit="10"/></g><g transform="translate(10,-86) scale(1,1)"><path fill="none" stroke="#000000" d="M 1126.969482421875 331.64 L 1114.2058460582386 349" stroke-miterlimit="10"/></g><g transform="translate(10,-86) scale(1,1)"><path fill="none" stroke="#000000" d="M 1126.969482421875 331.64 L 1139.7331187855114 349" stroke-miterlimit="10"/></g><g transform="translate(10,-86) scale(1,1)"><g><path fill="none" stroke="none"/><text fill="#000000" stroke="none" font-family="Arial" font-size="13px" font-style="normal" font-weight="bold" text-decoration="none" x="1064.82275390625" y="369.5">Sistema de detección</text></g></g><g transform="translate(10,-86) scale(1,1)"><path fill="none" stroke="#000000" d="M 913 447 L 1055 372" stroke-miterlimit="10"/></g><g transform="translate(10,-86) scale(1,1)"><path fill="none" stroke="#000000" d="M 826 267 L 1055 319" stroke-miterlimit="10"/></g><g transform="translate(10,-86) scale(1,1)"><path fill="#C0C0C0" stroke="none" d="M 254 312 C 254 302.6111584 291.6080768 295 338 295 C 384.3919232 295 422 302.6111584 422 312 C 422 321.3888416 384.3919232 329 338 329 C 291.6080768 329 254 321.3888416 254 312 Z" opacity="0.2"/></g><g transform="translate(10,-86) scale(1,1)"><path fill="#ffffff" stroke="none" d="M 247 305 C 247 295.6111584 284.6080768 288 331 288 C 377.3919232 288 415 295.6111584 415 305 C 415 314.3888416 377.3919232 322 331 322 C 284.6080768 322 247 314.3888416 247 305 Z"/></g><g transform="translate(10,-86) scale(1,1)"><path fill="none" stroke="#000000" d="M 247 305 C 247 295.6111584 284.6080768 288 331 288 C 377.3919232 288 415 295.6111584 415 305 C 415 314.3888416 377.3919232 322 331 322 C 284.6080768 322 247 314.3888416 247 305 Z" stroke-miterlimit="10"/></g><g transform="translate(10,-86) scale(1,1)"><g><path fill="none" stroke="none"/><text fill="#000000" stroke="none" font-family="Arial" font-size="13px" font-style="normal" font-weight="bold" text-decoration="none" x="280.780517578125" y="312">Introducir imagen</text></g></g><g transform="translate(10,-86) scale(1,1)"><path fill="none" stroke="#000000" d="M 246 318 L 153 332" stroke-miterlimit="10"/></g><g transform="translate(10,-86) scale(1,1)"><path fill="none" stroke="#000000" d="M 329 383 L 330 323" stroke-miterlimit="10" stroke-dasharray="3"/></g><g transform="translate(10,-86) scale(1,1)"><path fill="none" stroke="#000000" d="M 334.03957882806384 333.2314125560383 L 330 323 L 325.62171238296963 333.0911147819534" stroke-miterlimit="10"/></g><g transform="translate(10,-86) scale(1,1)"><path fill="none" stroke="#000000" d="M 653 447 L 738 267" stroke-miterlimit="10" stroke-dasharray="3"/></g><g transform="translate(10,-86) scale(1,1)"><path fill="none" stroke="#000000" d="M 737.4669244903156 277.9870756118712 L 738 267 L 729.8540230216541 274.3920943627811" stroke-miterlimit="10"/></g><g transform="translate(10,-86) scale(1,1)"><g><path fill="none" stroke="none"/><text fill="#000000" stroke="none" font-family="Arial" font-size="13px" font-style="normal" font-weight="normal" text-decoration="none" x="639.5" y="350.5">«include»</text></g></g><g transform="translate(10,-86) scale(1,1)"><path fill="none" stroke="#000000" d="M 730 465 L 799 465" stroke-miterlimit="10" stroke-dasharray="3"/></g><g transform="translate(10,-86) scale(1,1)"><path fill="none" stroke="#000000" d="M 788.8373251423759 469.209517756016 L 799 465 L 788.8373251423758 460.790482243984" stroke-miterlimit="10"/></g><g transform="translate(10,-86) scale(1,1)"><g><path fill="none" stroke="none"/><text fill="#000000" stroke="none" font-family="Arial" font-size="13px" font-style="normal" font-weight="normal" text-decoration="none" x="736.5" y="441.5">«include»</text></g></g><g transform="translate(10,-86) scale(1,1)"><path fill="#C0C0C0" stroke="none" d="M 447 360 C 447 350.6111584 483.7126464 343 529 343 C 574.2873536 343 611 350.6111584 611 360 C 611 369.3888416 574.2873536 377 529 377 C 483.7126464 377 447 369.3888416 447 360 Z" opacity="0.2"/></g><g transform="translate(10,-86) scale(1,1)"><path fill="#ffffff" stroke="none" d="M 440 353 C 440 343.6111584 476.7126464 336 522 336 C 567.2873536 336 604 343.6111584 604 353 C 604 362.3888416 567.2873536 370 522 370 C 476.7126464 370 440 362.3888416 440 353 Z"/></g><g transform="translate(10,-86) scale(1,1)"><path fill="none" stroke="#000000" d="M 440 353 C 440 343.6111584 476.7126464 336 522 336 C 567.2873536 336 604 343.6111584 604 353 C 604 362.3888416 567.2873536 370 522 370 C 476.7126464 370 440 362.3888416 440 353 Z" stroke-miterlimit="10"/></g><g transform="translate(10,-86) scale(1,1)"><g><path fill="none" stroke="none"/><text fill="#000000" stroke="none" font-family="Arial" font-size="13px" font-style="normal" font-weight="bold" text-decoration="none" x="472.148681640625" y="360">Obtener métricas</text></g></g><g transform="translate(10,-86) scale(1,1)"><path fill="none" stroke="#000000" d="M 403 323 L 450 335" stroke-miterlimit="10" stroke-dasharray="3"/></g><g transform="translate(10,-86) scale(1,1)"><path fill="none" stroke="#000000" d="M 439.1118401796427 336.5646008201316 L 450 335 L 441.1945685066173 328.40724820614753" stroke-miterlimit="10"/></g><g transform="translate(10,-86) scale(1,1)"><path fill="none" stroke="#000000" d="M 707 267 L 561 335" stroke-miterlimit="10"/></g><g transform="translate(10,-86) scale(1,1)"><path fill="#FFFFFF" stroke="none" d="M 575.8703686970457 318.78666799162113 L 561 335 L 582.9794955531788 334.0503815356716"/></g><g transform="translate(10,-86) scale(1,1)"><path fill="none" stroke="#000000" d="M 575.8703686970457 318.78666799162113 L 561 335 L 582.9794955531788 334.0503815356716 L 575.8703686970457 318.78666799162113" stroke-miterlimit="10"/></g><g transform="translate(10,-86) scale(1,1)"><path fill="none" stroke="#000000" d="M 624 447 L 542 371" stroke-miterlimit="10"/></g><g transform="translate(10,-86) scale(1,1)"><path fill="#FFFFFF" stroke="none" d="M 562.6301901263644 378.64167883060105 L 542 371 L 551.1842644147524 390.99123025628774"/></g><g transform="translate(10,-86) scale(1,1)"><path fill="none" stroke="#000000" d="M 562.6301901263644 378.64167883060105 L 542 371 L 551.1842644147524 390.99123025628774 L 562.6301901263644 378.64167883060105" stroke-miterlimit="10"/></g></g></svg>